<svg width="14" height="18" viewBox="0 0 14 18" fill="none" xmlns="http://www.w3.org/2000/svg">
<path d="M6.35863e-05 6.4568C6.35863e-05 5.67858 0.136045 4.94338 0.404008 4.25719C0.660026 3.5907 1.0404 2.979 1.52485 2.45469C2.00832 1.93725 2.56158 1.48982 3.16863 1.12532C3.79146 0.748364 4.46575 0.46398 5.17035 0.281082C5.88346 0.0937513 6.61776 -0.000721577 7.35505 4.14945e-06C8.49389 4.14945e-06 9.55375 0.241071 10.5366 0.721204C11.5066 1.19258 12.3323 1.91598 12.9273 2.81579C13.5412 3.73104 13.8462 4.76633 13.8462 5.92065C13.8462 6.61284 13.7782 7.29003 13.6392 7.95221C13.5027 8.61403 13.2858 9.25665 12.9933 9.86574C12.7144 10.4554 12.3499 11.0004 11.9114 11.4832C11.4708 11.9583 10.9371 12.3376 10.3436 12.5975C9.69933 12.88 9.00234 13.0222 8.29892 13.0146C7.80999 13.0146 7.32205 12.8996 6.84012 12.6685C6.35819 12.4385 6.01223 12.1224 5.80426 11.7173C5.73127 11.9983 5.63129 12.4044 5.49831 12.9356C5.37032 13.4657 5.28434 13.8078 5.24634 13.9629C5.20635 14.1169 5.13236 14.374 5.02437 14.7301C4.95114 14.9935 4.85719 15.2507 4.74341 15.4993L4.39946 16.1735C4.25071 16.4628 4.08442 16.7427 3.90153 17.0117C3.72055 17.2738 3.49658 17.5869 3.22962 17.947L3.08064 18L2.98165 17.892C2.87467 16.7587 2.81967 16.0805 2.81967 15.8564C2.81967 15.1932 2.89866 14.449 3.05464 13.6228C3.20762 12.7976 3.44959 11.7603 3.77454 10.5129C4.0995 9.26658 4.28547 8.53337 4.33547 8.31631C4.1065 7.84918 3.99051 7.23901 3.99051 6.48881C3.99051 5.88964 4.17749 5.32848 4.55244 4.80034C4.92838 4.27419 5.40332 4.01112 5.97924 4.01112C6.42018 4.01112 6.76213 4.15716 7.0071 4.45024C7.25306 4.74232 7.37305 5.11042 7.37305 5.55955C7.37305 6.03568 7.21507 6.72487 6.89711 7.62612C6.57916 8.52837 6.42118 9.20156 6.42118 9.64868C6.42118 10.1018 6.58316 10.4809 6.90711 10.778C7.22681 11.0752 7.6496 11.2363 8.08595 11.2271C8.48189 11.2271 8.84884 11.1371 9.1898 10.956C9.52542 10.7803 9.81593 10.5294 10.0387 10.2228C10.5238 9.55695 10.8697 8.79997 11.0555 7.99722C11.1515 7.57511 11.2255 7.174 11.2715 6.79689C11.3205 6.41779 11.3415 6.05969 11.3415 5.71959C11.3415 4.47225 10.9456 3.49998 10.1587 2.80378C9.36777 2.10759 8.33791 1.76149 7.07109 1.76149C5.63029 1.76149 4.42545 2.22762 3.46059 3.16288C2.49472 4.09514 2.00879 5.28047 2.00879 6.71787C2.00879 7.03496 2.05678 7.34104 2.14777 7.63712C2.23676 7.93221 2.33374 8.16727 2.43873 8.34132C2.54271 8.51237 2.6407 8.67941 2.72969 8.83346C2.81967 8.9875 2.86667 9.09753 2.86667 9.16355C2.86667 9.3656 2.81368 9.62868 2.70669 9.95377C2.59571 10.2789 2.46472 10.4409 2.30675 10.4409C2.29175 10.4409 2.22976 10.4299 2.12177 10.4069C1.74779 10.2952 1.41005 10.0864 1.14291 9.80172C0.859383 9.5067 0.63563 9.15955 0.483997 8.77944C0.332795 8.40069 0.215029 8.00942 0.132045 7.61012C0.0423894 7.23229 -0.00191726 6.84512 6.35863e-05 6.4568Z" fill="black"/>
</svg>
