<svg width="337" height="56" viewBox="0 0 337 56" fill="none" xmlns="http://www.w3.org/2000/svg">
<path d="M292.275 12.5203C290.256 9.01951 287.834 7.00021 283.527 7.00021C279.016 7.00021 275.113 10.2327 275.113 14.8766C275.113 19.2508 279.62 21.2701 283.054 22.8176L286.421 24.2991C293.017 27.1933 298.603 30.4918 298.603 38.5677C298.603 47.4537 291.468 54.2517 282.653 54.2517C274.507 54.2517 268.449 49.0012 266.833 41.1248L272.355 39.5773C273.095 44.7618 277.064 49.0026 282.517 49.0026C287.97 49.0026 292.948 44.8292 292.948 39.1082C292.948 33.1865 288.307 31.1645 283.594 29.0117L280.498 27.6637C274.573 24.9704 269.46 21.9428 269.46 14.673C269.46 6.79801 276.124 1.75244 283.662 1.75244C289.314 1.75244 294.092 4.6466 296.786 9.62746L292.275 12.5203Z" fill="black"/>
<path d="M330.55 12.5203C328.53 9.01951 326.108 7.00021 321.801 7.00021C317.291 7.00021 313.387 10.2327 313.387 14.8766C313.387 19.2508 317.897 21.2701 321.328 22.8176L324.695 24.2991C331.291 27.1933 336.877 30.4918 336.877 38.5677C336.877 47.4537 329.742 54.2517 320.928 54.2517C312.782 54.2517 306.724 49.0012 305.108 41.1248L310.629 39.5773C311.369 44.7618 315.342 49.0026 320.792 49.0026C326.244 49.0026 331.225 44.8292 331.225 39.1082C331.225 33.1865 326.581 31.1645 321.869 29.0117L318.775 27.6637C312.849 24.9704 307.736 21.9428 307.736 14.673C307.736 6.79801 314.399 1.75244 321.937 1.75244C327.59 1.75244 332.368 4.6466 335.062 9.62746L330.55 12.5203Z" fill="black"/>
<path d="M235.295 2.62585H261.612V7.87497H240.949V22.9524H261.006V28.2028H240.949V48.1249H261.612V53.374H235.295V2.62585Z" fill="black"/>
<path d="M0 0.470459L39.5787 41.9323V2.62591H45.2308V55.663L5.65486 14.2699V53.3741H0V0.470459Z" fill="black"/>
<path d="M124.311 40.653L140.734 0L157.155 40.653L170.484 2.62725H176.607L157.155 56L140.734 15.1448L124.311 55.9987L104.858 2.62591H110.984L124.311 40.653Z" fill="black"/>
<path d="M104.81 28.0695C104.81 42.6737 92.8272 54.2517 78.3578 54.2517C63.8856 54.2517 51.9059 42.6737 51.9059 28.0695C51.9059 13.5313 63.8856 1.75244 78.3578 1.75244C92.8285 1.75109 104.81 13.5313 104.81 28.0695ZM57.5595 27.9994C57.5595 39.4425 66.8472 49.0012 78.3591 49.0012C89.8683 49.0012 99.1561 39.4425 99.1561 27.9994C99.1561 16.4901 90.0018 7.00021 78.3591 7.00021C66.7124 7.00021 57.5595 16.4901 57.5595 27.9994Z" fill="black"/>
<path d="M182.181 0.470459L221.757 41.9323V2.62591H227.409V55.663L187.833 14.2686V53.3728H182.181V0.470459Z" fill="black"/>
</svg>
