<svg width="23" height="18" viewBox="0 0 23 18" fill="none" xmlns="http://www.w3.org/2000/svg">
<path d="M15.5875 5.64149C15.7344 5.64149 15.8813 5.64647 16.0257 5.65394C15.4183 2.44979 12.0846 0 8.06141 0C3.60996 0 0 3.00249 0 6.70705C0 8.72614 1.08548 10.5461 2.78589 11.7759C2.85603 11.8254 2.91322 11.8911 2.95265 11.9674C2.99208 12.0436 3.01259 12.1283 3.01245 12.2141C3.01245 12.2739 3 12.3286 2.98506 12.3859C2.84813 12.8913 2.63153 13.7004 2.62158 13.7378C2.60415 13.8025 2.57925 13.8672 2.57925 13.9344C2.57925 14.0813 2.69875 14.2033 2.84813 14.2033C2.90539 14.2033 2.9527 14.1809 3.00249 14.1535L4.76763 13.1353C4.89958 13.0581 5.04149 13.0108 5.19585 13.0108C5.27552 13.0108 5.35519 13.0232 5.43236 13.0456C6.25643 13.2822 7.14523 13.4141 8.0639 13.4141C8.21328 13.4141 8.36016 13.4116 8.50705 13.4041C8.33029 12.8813 8.23568 12.3311 8.23568 11.761C8.23568 8.38008 11.527 5.64149 15.5875 5.64149ZM10.7502 3.48797C11.3427 3.48797 11.8257 3.96846 11.8257 4.56099C11.8257 5.15352 11.3452 5.63402 10.7502 5.63402C10.1577 5.63402 9.67469 5.15352 9.67469 4.56099C9.67469 3.96846 10.1577 3.48797 10.7502 3.48797ZM5.3751 5.63402C4.78257 5.63402 4.29958 5.15352 4.29958 4.56099C4.29958 3.96846 4.78008 3.48797 5.3751 3.48797C5.97012 3.48797 6.45062 3.96846 6.45062 4.56099C6.45062 5.15352 5.96763 5.63402 5.3751 5.63402ZM19.9842 15.9809C21.4008 14.9552 22.3046 13.4415 22.3046 11.756C22.3046 8.66888 19.2971 6.1668 15.5851 6.1668C11.8755 6.1668 8.86556 8.66888 8.86556 11.756C8.86556 14.8431 11.873 17.3452 15.5851 17.3452C16.3519 17.3452 17.0938 17.2357 17.7784 17.039C17.8431 17.0191 17.9079 17.0091 17.9751 17.0091C18.1046 17.0091 18.2216 17.049 18.3311 17.1112L19.8025 17.9577C19.8448 17.9826 19.8846 18 19.9319 18C19.9615 18.0002 19.9907 17.9946 20.0181 17.9835C20.0454 17.9724 20.0703 17.956 20.0913 17.9353C20.112 17.9143 20.1284 17.8894 20.1395 17.8621C20.1507 17.8347 20.1562 17.8054 20.156 17.7759C20.156 17.7212 20.1336 17.6664 20.1212 17.6116C20.1137 17.5817 19.9319 16.907 19.8174 16.4838C19.805 16.4365 19.795 16.3892 19.795 16.3419C19.7975 16.195 19.8722 16.0631 19.9842 15.9809ZM13.3494 10.8647C12.8539 10.8647 12.4531 10.4639 12.4531 9.97095C12.4531 9.478 12.8539 9.07718 13.3494 9.07718C13.8448 9.07718 14.2456 9.478 14.2456 9.97095C14.2456 10.4639 13.8423 10.8647 13.3494 10.8647ZM17.8282 10.8647C17.3328 10.8647 16.9319 10.4639 16.9319 9.97095C16.9319 9.478 17.3328 9.07718 17.8282 9.07718C18.3236 9.07718 18.7245 9.478 18.7245 9.97095C18.7233 10.2081 18.6284 10.4351 18.4605 10.6025C18.2926 10.7699 18.0653 10.8642 17.8282 10.8647Z" fill="black"/>
</svg>
