<svg width="11" height="18" viewBox="0 0 11 18" fill="none" xmlns="http://www.w3.org/2000/svg">
<path d="M10.4212 16.8878C9.82271 17.538 8.43672 17.9797 7.19547 18H7.05897C2.89124 18 1.98449 14.877 1.98449 13.0545V7.99354H0.343499C0.298196 7.99344 0.253369 7.9843 0.211643 7.96666C0.169917 7.94901 0.132132 7.92322 0.1005 7.89079C0.035964 7.82458 -0.000106636 7.73575 2.36809e-07 7.64329V5.2523C2.36809e-07 5.1293 0.0375002 5.0093 0.1065 4.9088C0.175684 4.80882 0.274228 4.73282 0.388499 4.6913C2.52974 3.9218 3.19949 2.01981 3.29099 0.573817C3.31724 0.186818 3.51374 6.90203e-05 3.84449 6.90203e-05H6.29998C6.34589 -0.000858658 6.39152 0.00757362 6.43407 0.0248519C6.47662 0.0421302 6.5152 0.0678925 6.54748 0.100569C6.58024 0.133351 6.6062 0.1723 6.62383 0.215166C6.64147 0.258032 6.65044 0.303966 6.65022 0.350318V4.40255H9.51746C9.60821 4.40255 9.69596 4.44005 9.76046 4.5053C9.825 4.57151 9.86107 4.66034 9.86096 4.7528V7.62529C9.86107 7.71775 9.825 7.80658 9.76046 7.87279C9.72889 7.90535 9.69114 7.93129 9.64941 7.94906C9.60768 7.96683 9.56282 7.97609 9.51746 7.97629H6.63748V12.66C6.63748 13.836 7.39872 14.1608 7.86747 14.1608C8.25037 14.1439 8.62768 14.0625 8.98347 13.92C9.12001 13.8468 9.2763 13.819 9.42972 13.8405C9.49359 13.8589 9.55117 13.8945 9.59614 13.9435C9.64112 13.9924 9.67176 14.0528 9.68471 14.118L10.4437 16.3785C10.4947 16.5563 10.5487 16.752 10.4212 16.8885V16.8878Z" fill="black"/>
</svg>
