<svg width="23" height="18" viewBox="0 0 23 18" fill="none" xmlns="http://www.w3.org/2000/svg">
<path d="M22.5 2.13818C21.691 2.48965 20.8105 2.74261 19.9037 2.84113C20.8452 2.2778 21.5503 1.38782 21.8866 0.338176C21.0031 0.867496 20.0352 1.23866 19.0259 1.43522C18.604 0.981027 18.0938 0.6192 17.5271 0.372279C16.9603 0.125359 16.3491 -0.00136274 15.7316 1.10514e-05C13.2331 1.10514e-05 11.2237 2.03965 11.2237 4.54261C11.2237 4.89409 11.266 5.24557 11.3348 5.58374C7.59362 5.38669 4.257 3.58669 2.03876 0.83078C1.63457 1.52606 1.42276 2.31771 1.42537 3.12338C1.42537 4.69971 2.22119 6.08965 3.43474 6.90711C2.71958 6.87874 2.02116 6.68077 1.39629 6.3293V6.38521C1.39629 8.59261 2.94562 10.4219 5.01052 10.8426C4.62281 10.944 4.22397 10.9959 3.8234 10.997C3.52992 10.997 3.25231 10.9678 2.97206 10.9278C3.54314 12.7278 5.20616 14.0352 7.18646 14.0778C5.63712 15.3 3.69649 16.0189 1.58929 16.0189C1.21121 16.0189 0.862216 16.0056 0.5 15.963C2.4988 17.2544 4.87039 18 7.42441 18C15.7157 18 20.2527 11.0823 20.2527 5.07782C20.2527 4.88078 20.2527 4.68374 20.2395 4.48669C21.1172 3.83965 21.8866 3.03817 22.5 2.13818Z" fill="black"/>
</svg>
