<svg width="21" height="18" viewBox="0 0 21 18" fill="none" xmlns="http://www.w3.org/2000/svg">
<path d="M20.9887 4.16084C20.8967 6.18771 19.4688 8.96055 16.709 12.4833C13.8562 16.1611 11.4393 18 9.46143 18C8.2365 18 7.20156 16.8781 6.35562 14.6412C5.79165 12.5863 5.22868 10.5315 4.65872 8.48158C4.03176 6.24471 3.3588 5.12278 2.63384 5.12278C2.47885 5.12278 1.92688 5.45276 0.98894 6.10272L0 4.8378C1.03494 3.93185 2.05988 3.0329 3.06581 2.12796C4.44573 0.943031 5.48767 0.323069 6.17763 0.260073C7.81053 0.107082 8.81747 1.21102 9.19744 3.58487C9.60542 6.14072 9.8874 7.73462 10.0484 8.35458C10.5204 10.4785 11.0383 11.5374 11.6013 11.5374C12.0383 11.5374 12.7002 10.8494 13.5802 9.47151C14.4601 8.0936 14.9311 7.04666 14.9951 6.32871C15.1211 5.13878 14.6501 4.54681 13.5802 4.54681C13.0802 4.54681 12.5622 4.66081 12.0273 4.88879C13.0572 1.536 15.0291 -0.0929058 17.9399 0.0040883C20.0968 0.0610848 21.1147 1.45 20.9887 4.15984V4.16084Z" fill="black"/>
</svg>
